<?xml version="1.0" encoding="UTF-8" standalone="no"?>
<!DOCTYPE svg PUBLIC "-//W3C//DTD SVG 1.1//EN" "http://www.w3.org/Graphics/SVG/1.1/DTD/svg11.dtd">
<svg version="1.1" xmlns="http://www.w3.org/2000/svg" xmlns:xlink="http://www.w3.org/1999/xlink" preserveAspectRatio="xMidYMid meet" viewBox="151.55812100707945 151.0352098368358 233.02424368253625 292.0167280372476" width="229.02" height="288.02"><defs><path d="M376.33 264.94L376.73 271.4L377.1 277.64L377.42 283.7L377.7 289.56L377.95 295.22L378.16 300.68L378.33 305.95L378.45 311.01L378.54 315.88L378.59 320.54L378.6 325.01L378.58 329.3L378.51 333.37L378.39 337.24L378.25 340.93L378.06 344.42L377.83 347.7L377.56 350.79L377.26 353.68L376.91 356.37L376.53 358.87L376.1 361.16L375.64 363.26L375.14 365.16L374.59 366.86L374 368.37L373.38 369.67L372.72 370.78L372.02 371.7L370.87 372.97L369.61 374.35L368.22 375.82L366.71 377.39L365.11 379.03L363.4 380.75L361.6 382.54L359.71 384.39L357.74 386.31L355.69 388.27L353.57 390.27L351.39 392.33L349.15 394.4L346.86 396.5L344.52 398.62L342.32 400.6L341.15 401.84L338.69 404.34L336.25 406.76L333.82 409.1L331.4 411.36L328.99 413.54L326.6 415.63L324.22 417.63L321.86 419.56L319.53 421.41L317.21 423.16L314.92 424.83L312.65 426.43L310.41 427.93L308.2 429.35L306.02 430.68L303.87 431.93L301.75 433.09L299.67 434.16L297.63 435.14L295.62 436.03L295.4 436.12L293.9 436.87L292.2 437.63L290.59 438.24L289.09 438.73L287.61 439.1L286.06 439.38L284.43 439.6L283.63 439.67L282.84 439.8L281.21 439.96L279.63 440.05L278.11 440.04L276.55 439.92L274.86 439.7L273.05 439.35L271.45 438.99L271.21 438.95L269.08 438.55L266.89 438.07L264.65 437.52L262.35 436.89L260.02 436.18L257.63 435.4L255.19 434.53L252.71 433.59L250.19 432.58L247.62 431.49L245.02 430.31L242.38 429.06L239.69 427.73L236.98 426.34L234.24 424.85L231.47 423.3L228.66 421.67L225.83 419.95L222.97 418.16L220.09 416.31L218.7 415.37L216.17 413.96L213.48 412.45L210.83 410.93L208.24 409.43L205.7 407.95L203.25 406.48L200.86 405.05L198.56 403.64L196.36 402.28L194.25 400.96L192.25 399.69L190.36 398.46L188.59 397.28L186.95 396.18L185.44 395.13L184.07 394.15L183.21 393.43L182.35 392.5L181.48 391.37L180.62 390.04L179.76 388.51L178.9 386.77L178.03 384.83L177.18 382.68L176.31 380.34L175.45 377.79L174.59 375.04L173.73 372.09L172.87 368.94L172.01 365.58L171.14 362.01L170.29 358.25L169.42 354.29L168.57 350.11L167.7 345.74L166.85 341.17L165.98 336.4L165.13 331.42L164.26 326.24L163.41 320.86L162.54 315.27L161.69 309.48L160.82 303.49L159.97 297.29L159.1 290.9L158.25 284.3L157.39 277.5L156.52 270.5L156.12 267.15L216.78 198.52L316.44 185.67L375.31 250.29L375.4 251.45L375.4 251.45L375.88 258.29L376.33 264.94Z" id="bDSsKmdzQ"></path><path d="M376.33 264.94L376.73 271.4L377.1 277.64L377.42 283.7L377.7 289.56L377.95 295.22L378.16 300.68L378.33 305.95L378.45 311.01L378.54 315.88L378.59 320.54L378.6 325.01L378.58 329.3L378.51 333.37L378.39 337.24L378.25 340.93L378.06 344.42L377.83 347.7L377.56 350.79L377.26 353.68L376.91 356.37L376.53 358.87L376.1 361.16L375.64 363.26L375.14 365.16L374.59 366.86L374 368.37L373.38 369.67L372.72 370.78L372.02 371.7L370.87 372.97L369.61 374.35L368.22 375.82L366.71 377.39L365.11 379.03L363.4 380.75L361.6 382.54L359.71 384.39L357.74 386.31L355.69 388.27L353.57 390.27L351.39 392.33L349.15 394.4L346.86 396.5L344.52 398.62L342.32 400.6L341.15 401.84L338.69 404.34L336.25 406.76L333.82 409.1L331.4 411.36L328.99 413.54L326.6 415.63L324.22 417.63L321.86 419.56L319.53 421.41L317.21 423.16L314.92 424.83L312.65 426.43L310.41 427.93L308.2 429.35L306.02 430.68L303.87 431.93L301.75 433.09L299.67 434.16L297.63 435.14L295.62 436.03L295.4 436.12L293.9 436.87L292.2 437.63L290.59 438.24L289.09 438.73L287.61 439.1L286.06 439.38L284.43 439.6L283.63 439.67L282.84 439.8L281.21 439.96L279.63 440.05L278.11 440.04L276.55 439.92L274.86 439.7L273.05 439.35L271.45 438.99L271.21 438.95L269.08 438.55L266.89 438.07L264.65 437.52L262.35 436.89L260.02 436.18L257.63 435.4L255.19 434.53L252.71 433.59L250.19 432.58L247.62 431.49L245.02 430.31L242.38 429.06L239.69 427.73L236.98 426.34L234.24 424.85L231.47 423.3L228.66 421.67L225.83 419.95L222.97 418.16L220.09 416.31L218.7 415.37L216.17 413.96L213.48 412.45L210.83 410.93L208.24 409.43L205.7 407.95L203.25 406.48L200.86 405.05L198.56 403.64L196.36 402.28L194.25 400.96L192.25 399.69L190.36 398.46L188.59 397.28L186.95 396.18L185.44 395.13L184.07 394.15L183.21 393.43L182.35 392.5L181.48 391.37L180.62 390.04L179.76 388.51L178.9 386.77L178.03 384.83L177.18 382.68L176.31 380.34L175.45 377.79L174.59 375.04L173.73 372.09L172.87 368.94L172.01 365.58L171.14 362.01L170.29 358.25L169.42 354.29L168.57 350.11L167.7 345.74L166.85 341.17L165.98 336.4L165.13 331.42L164.26 326.24L163.41 320.86L162.54 315.27L161.69 309.48L160.82 303.49L159.97 297.29L159.1 290.9L158.25 284.3L157.39 277.5L156.52 270.5L156.12 267.15L216.78 198.52L316.44 185.67L375.31 250.29L375.4 251.45L375.4 251.45L375.88 258.29L376.33 264.94Z" id="d6zYPZYlg"></path><path d="M287.92 152.43L292.64 152.75L297.29 153.18L301.83 153.71L306.3 154.32L310.65 155.05L314.9 155.87L319.04 156.78L323.06 157.79L326.97 158.91L330.75 160.12L334.4 161.42L337.93 162.82L341.31 164.32L344.55 165.92L347.65 167.62L350.6 169.4L353.39 171.29L356.02 173.27L358.49 175.36L360.78 177.53L362.23 179.04L363.62 180.61L364.97 182.24L366.26 183.93L367.5 185.69L368.69 187.5L369.82 189.38L370.91 191.3L371.94 193.3L372.92 195.35L373.85 197.46L374.72 199.63L375.54 201.87L376.31 204.16L377.02 206.51L377.69 208.93L378.3 211.4L378.86 213.93L379.37 216.52L379.82 219.17L380.22 221.88L380.57 224.66L380.87 227.49L381.11 230.38L381.31 233.34L381.46 236.35L381.55 239.42L381.58 242.55L381.56 245.75L381.49 249L381.38 252.31L381.2 255.69L380.98 259.12L380.7 262.61L380.37 266.16L379.99 269.77L379.56 273.45L379.07 277.18L378.53 280.97L377.94 284.82L371.94 289.82L371.96 288.61L371.99 287.42L372 286.25L371.99 285.1L371.97 283.97L371.94 282.86L371.89 281.77L371.83 280.7L371.76 279.65L371.67 278.62L371.57 277.6L371.45 276.61L371.33 275.64L371.18 274.69L371.02 273.74L370.86 272.83L370.67 271.94L370.47 271.06L370.26 270.21L370.04 269.37L369.81 268.56L369.55 267.76L369.28 266.97L369 266.22L368.72 265.48L368.41 264.76L368.09 264.07L367.75 263.38L367.4 262.72L367.04 262.08L366.67 261.46L366.29 260.85L365.88 260.27L365.47 259.71L365.04 259.17L364.6 258.64L364.14 258.14L363.67 257.66L363.18 257.2L362.69 256.75L362.19 256.31L361.69 255.86L361.2 255.4L360.7 254.94L360.21 254.46L359.72 253.98L359.24 253.48L358.76 252.98L358.28 252.46L357.8 251.94L357.34 251.41L356.87 250.87L356.4 250.32L355.94 249.76L355.48 249.19L355.02 248.62L354.57 248.03L354.12 247.43L353.68 246.84L353.23 246.23L352.8 245.6L352.36 244.97L351.93 244.33L351.5 243.68L351.06 243.02L350.64 242.36L350.22 241.68L349.81 240.99L349.39 240.3L348.98 239.6L348.57 238.88L348.17 238.16L347.76 237.42L347.37 236.69L346.97 235.94L346.58 235.18L346.18 234.41L345.79 233.63L345.41 232.85L345.31 232.63L344.25 232.64L345.1 232.7L337.77 233.07L330.86 233.33L324.38 233.47L318.32 233.49L312.68 233.39L307.48 233.16L302.69 232.82L298.33 232.36L294.38 231.77L290.88 231.06L287.78 230.23L285.12 229.29L282.97 228.27L284.56 232.19L286.94 236.4L289.79 240.18L293.12 243.53L292.05 243.12L293.14 243.83L289.09 243.17L285.14 241.93L281.27 240.1L277.49 237.67L277.41 237.6L277.29 237.55L277.23 237.54L289.27 263L290.22 263.6L289.49 263.45L289.6 263.66L289.41 263.44L289.09 263.38L289.25 263.7L288.54 263.27L285.09 262.6L280.13 261.4L275.34 259.99L270.72 258.37L266.28 256.52L262.01 254.46L257.9 252.19L253.97 249.69L250.21 246.99L246.62 244.08L243.2 240.93L239.95 237.58L237.16 234.35L252.37 259.23L246.84 257.69L241.53 255.99L236.44 254.15L231.59 252.17L226.95 250.05L222.54 247.78L218.36 245.37L214.4 242.81L210.68 240.12L207.17 237.27L203.89 234.28L201.78 232.13L199.61 236.93L197.22 241.8L194.74 246.4L192.15 250.78L189.49 254.91L186.73 258.81L183.88 262.47L180.93 265.87L177.9 269.05L174.77 271.98L171.56 274.68L175.4 269.24L170.8 273.96L171.56 274.68L172.15 313.47L161.58 310.68L153.27 257.4L152.84 251.35L152.6 245.47L152.56 239.75L152.72 234.18L153.07 228.78L153.62 223.52L154.37 218.43L155.31 213.5L155.48 212.81L155.54 211.64L155.92 210.97L156.45 208.74L157.79 204.12L159.32 199.67L161.05 195.38L162.98 191.24L165.1 187.26L167.42 183.45L169.94 179.79L171.78 177.43L172.03 177.23L173.39 176.21L174.79 175.19L176.2 174.19L177.63 173.19L179.07 172.19L180.54 171.2L182.02 170.23L183.52 169.26L185.04 168.3L186.58 167.35L188.12 166.4L189.7 165.46L191.28 164.53L192.88 163.62L193.11 163.49L198.55 162.05L204.07 160.68L209.57 159.41L215.07 158.25L220.55 157.18L226 156.22L231.42 155.36L236.81 154.6L242.17 153.93L247.48 153.37L252.74 152.9L257.96 152.54L263.11 152.27L268.21 152.1L273.24 152.04L278.21 152.07L283.1 152.2L287.92 152.43ZM288.71 262.55L288.76 262.67L288.84 262.72L288.71 262.55ZM284.33 228.33L283.35 228.17L282.43 226.69L282.67 227.53L282.95 228.23L284.33 228.33Z" id="b32WrV5qvX"></path><path d="M287.92 152.43L292.64 152.75L297.29 153.18L301.83 153.71L306.3 154.32L310.65 155.05L314.9 155.87L319.04 156.78L323.06 157.79L326.97 158.91L330.75 160.12L334.4 161.42L337.93 162.82L341.31 164.32L344.55 165.92L347.65 167.62L350.6 169.4L353.39 171.29L356.02 173.27L358.49 175.36L360.78 177.53L362.23 179.04L363.62 180.61L364.97 182.24L366.26 183.93L367.5 185.69L368.69 187.5L369.82 189.38L370.91 191.3L371.94 193.3L372.92 195.35L373.85 197.46L374.72 199.63L375.54 201.87L376.31 204.16L377.02 206.51L377.69 208.93L378.3 211.4L378.86 213.93L379.37 216.52L379.82 219.17L380.22 221.88L380.57 224.66L380.87 227.49L381.11 230.38L381.31 233.34L381.46 236.35L381.55 239.42L381.58 242.55L381.56 245.75L381.49 249L381.38 252.31L381.2 255.69L380.98 259.12L380.7 262.61L380.37 266.16L379.99 269.77L379.56 273.45L379.07 277.18L378.53 280.97L377.94 284.82L371.94 289.82L371.96 288.61L371.99 287.42L372 286.25L371.99 285.1L371.97 283.97L371.94 282.86L371.89 281.77L371.83 280.7L371.76 279.65L371.67 278.62L371.57 277.6L371.45 276.61L371.33 275.64L371.18 274.69L371.02 273.74L370.86 272.83L370.67 271.94L370.47 271.06L370.26 270.21L370.04 269.37L369.81 268.56L369.55 267.76L369.28 266.97L369 266.22L368.72 265.48L368.41 264.76L368.09 264.07L367.75 263.38L367.4 262.72L367.04 262.08L366.67 261.46L366.29 260.85L365.88 260.27L365.47 259.71L365.04 259.17L364.6 258.64L364.14 258.14L363.67 257.66L363.18 257.2L362.69 256.75L362.19 256.31L361.69 255.86L361.2 255.4L360.7 254.94L360.21 254.46L359.72 253.98L359.24 253.48L358.76 252.98L358.28 252.46L357.8 251.94L357.34 251.41L356.87 250.87L356.4 250.32L355.94 249.76L355.48 249.19L355.02 248.62L354.57 248.03L354.12 247.43L353.68 246.84L353.23 246.23L352.8 245.6L352.36 244.97L351.93 244.33L351.5 243.68L351.06 243.02L350.64 242.36L350.22 241.68L349.81 240.99L349.39 240.3L348.98 239.6L348.57 238.88L348.17 238.16L347.76 237.42L347.37 236.69L346.97 235.94L346.58 235.18L346.18 234.41L345.79 233.63L345.41 232.85L345.31 232.63L344.25 232.64L345.1 232.7L337.77 233.07L330.86 233.33L324.38 233.47L318.32 233.49L312.68 233.39L307.48 233.16L302.69 232.82L298.33 232.36L294.38 231.77L290.88 231.06L287.78 230.23L285.12 229.29L282.97 228.27L284.56 232.19L286.94 236.4L289.79 240.18L293.12 243.53L292.05 243.12L293.14 243.83L289.09 243.17L285.14 241.93L281.27 240.1L277.49 237.67L277.41 237.6L277.29 237.55L277.23 237.54L289.27 263L290.22 263.6L289.49 263.45L289.6 263.66L289.41 263.44L289.09 263.38L289.25 263.7L288.54 263.27L285.09 262.6L280.13 261.4L275.34 259.99L270.72 258.37L266.28 256.52L262.01 254.46L257.9 252.19L253.97 249.69L250.21 246.99L246.62 244.08L243.2 240.93L239.95 237.58L237.16 234.35L252.37 259.23L246.84 257.69L241.53 255.99L236.44 254.15L231.59 252.17L226.95 250.05L222.54 247.78L218.36 245.37L214.4 242.81L210.68 240.12L207.17 237.27L203.89 234.28L201.78 232.13L199.61 236.93L197.22 241.8L194.74 246.4L192.15 250.78L189.49 254.91L186.73 258.81L183.88 262.47L180.93 265.87L177.9 269.05L174.77 271.98L171.56 274.68L175.4 269.24L170.8 273.96L171.56 274.68L172.15 313.47L161.58 310.68L153.27 257.4L152.84 251.35L152.6 245.47L152.56 239.75L152.72 234.18L153.07 228.78L153.62 223.52L154.37 218.43L155.31 213.5L155.48 212.81L155.54 211.64L155.92 210.97L156.45 208.74L157.79 204.12L159.32 199.67L161.05 195.38L162.98 191.24L165.1 187.26L167.42 183.45L169.94 179.79L171.78 177.43L172.03 177.23L173.39 176.21L174.79 175.19L176.2 174.19L177.63 173.19L179.07 172.19L180.54 171.2L182.02 170.23L183.52 169.26L185.04 168.3L186.58 167.35L188.12 166.4L189.7 165.46L191.28 164.53L192.88 163.62L193.11 163.49L198.55 162.05L204.07 160.68L209.57 159.41L215.07 158.25L220.55 157.18L226 156.22L231.42 155.36L236.81 154.6L242.17 153.93L247.48 153.37L252.74 152.9L257.96 152.54L263.11 152.27L268.21 152.1L273.24 152.04L278.21 152.07L283.1 152.2L287.92 152.43ZM288.71 262.55L288.76 262.67L288.84 262.72L288.71 262.55ZM284.33 228.33L283.35 228.17L282.43 226.69L282.67 227.53L282.95 228.23L284.33 228.33Z" id="b5GauDFWeO"></path></defs><g><g><use xlink:href="#bDSsKmdzQ" opacity="1" fill="#ffcb94" fill-opacity="1"></use><g><use xlink:href="#bDSsKmdzQ" opacity="1" fill-opacity="0" stroke="#000000" stroke-width="1" stroke-opacity="0"></use></g></g><g><use xlink:href="#d6zYPZYlg" opacity="1" fill="#000000" fill-opacity="0"></use><g><use xlink:href="#d6zYPZYlg" opacity="1" fill-opacity="0" stroke="#ffcb94" stroke-width="1" stroke-opacity="1"></use></g></g><g><use xlink:href="#b32WrV5qvX" opacity="1" fill="#000000" fill-opacity="1"></use><g><use xlink:href="#b32WrV5qvX" opacity="1" fill-opacity="0" stroke="#000000" stroke-width="1" stroke-opacity="0"></use></g></g><g><use xlink:href="#b5GauDFWeO" opacity="1" fill="#000000" fill-opacity="0"></use><g><use xlink:href="#b5GauDFWeO" opacity="1" fill-opacity="0" stroke="#000000" stroke-width="1" stroke-opacity="1"></use></g></g></g></svg>